<svg width="327" height="198" viewBox="0 0 327 198" fill="none" xmlns="http://www.w3.org/2000/svg">
<path d="M0 8C0 3.58172 3.58172 0 8 0H319C323.418 0 327 3.58172 327 8V190C327 194.418 323.418 198 319 198H8C3.58173 198 0 194.418 0 190V8Z" fill="url(#paint0_linear_417_2075)"/>
<g opacity="0.7">
<rect width="327" height="198" fill="url(#paint1_linear_417_2075)"/>
<mask id="mask0_417_2075" style="mask-type:alpha" maskUnits="userSpaceOnUse" x="0" y="0" width="327" height="198">
<rect width="327" height="198" rx="14" fill="#5B259F"/>
</mask>
<g mask="url(#mask0_417_2075)">
<path d="M271 51.5C324.899 51.5 368.5 93.6357 368.5 145.5C368.5 197.364 324.899 239.5 271 239.5C217.101 239.5 173.5 197.364 173.5 145.5C173.5 93.6357 217.101 51.5 271 51.5Z" fill="#10ADD8" stroke="#10ADD8" stroke-width="3"/>
<ellipse cx="33" cy="9.5" rx="22" ry="21.5" fill="#10ADD8"/>
</g>
</g>
<defs>
<linearGradient id="paint0_linear_417_2075" x1="0" y1="0" x2="349.648" y2="55.6164" gradientUnits="userSpaceOnUse">
<stop stop-color="#28839F"/>
<stop offset="1" stop-color="#2996C4"/>
</linearGradient>
<linearGradient id="paint1_linear_417_2075" x1="0" y1="0" x2="349.648" y2="55.6164" gradientUnits="userSpaceOnUse">
<stop stop-color="#28839F"/>
<stop offset="1" stop-color="#2996C4"/>
</linearGradient>
</defs>
</svg>
