<svg width="327" height="198" viewBox="0 0 327 198" fill="none" xmlns="http://www.w3.org/2000/svg">
<path d="M0 8C0 3.58172 3.58172 0 8 0H319C323.418 0 327 3.58172 327 8V190C327 194.418 323.418 198 319 198H8C3.58173 198 0 194.418 0 190V8Z" fill="url(#paint0_linear_417_2197)"/>
<g opacity="0.7">
<rect width="327" height="198" fill="url(#paint1_linear_417_2197)"/>
<mask id="mask0_417_2197" style="mask-type:alpha" maskUnits="userSpaceOnUse" x="0" y="0" width="327" height="198">
<rect width="327" height="198" rx="14" fill="#5B259F"/>
</mask>
<g mask="url(#mask0_417_2197)">
<path d="M310 131.5C345.677 131.5 374.5 159.312 374.5 193.5C374.5 227.688 345.677 255.5 310 255.5C274.323 255.5 245.5 227.688 245.5 193.5C245.5 159.312 274.323 131.5 310 131.5Z" stroke="#AAEB98" stroke-width="3"/>
<ellipse cx="33" cy="9.5" rx="22" ry="21.5" fill="#AAEB98"/>
</g>
</g>
<g opacity="0.7">
<rect width="327" height="198" fill="url(#paint2_linear_417_2197)"/>
<mask id="mask1_417_2197" style="mask-type:alpha" maskUnits="userSpaceOnUse" x="0" y="0" width="327" height="198">
<rect width="327" height="198" rx="14" fill="#5B259F"/>
</mask>
<g mask="url(#mask1_417_2197)">
<path d="M310 18.5C410.851 18.5 492.5 96.9084 492.5 193.5C492.5 290.092 410.851 368.5 310 368.5C209.149 368.5 127.5 290.092 127.5 193.5C127.5 96.9084 209.149 18.5 310 18.5Z" stroke="#A4FFFD" stroke-width="3"/>
<ellipse cx="124" cy="29" rx="40" ry="39" fill="#A4FFFD"/>
</g>
</g>
<defs>
<linearGradient id="paint0_linear_417_2197" x1="0" y1="0" x2="349.648" y2="55.6164" gradientUnits="userSpaceOnUse">
<stop stop-color="#AAEB98"/>
<stop offset="1" stop-color="#6AD34D"/>
</linearGradient>
<linearGradient id="paint1_linear_417_2197" x1="0" y1="0" x2="349.648" y2="55.6164" gradientUnits="userSpaceOnUse">
<stop stop-color="#AAEB98"/>
<stop offset="1" stop-color="#6AD34D"/>
</linearGradient>
<linearGradient id="paint2_linear_417_2197" x1="0" y1="0" x2="349.648" y2="55.6164" gradientUnits="userSpaceOnUse">
<stop stop-color="#98E3EB"/>
<stop offset="1" stop-color="#0BBCE4"/>
</linearGradient>
</defs>
</svg>
