<svg width="442" height="75" viewBox="0 0 442 75" fill="none" xmlns="http://www.w3.org/2000/svg">
<path d="M89.0455 9.45454H101.182L114 40.7273H114.545L127.364 9.45454H139.5V56H129.955V25.7045H129.568L117.523 55.7727H111.023L98.9773 25.5909H98.5909V56H89.0455V9.45454ZM163.335 56.6818C159.744 56.6818 156.653 55.9545 154.062 54.5C151.487 53.0303 149.502 50.9545 148.108 48.2727C146.714 45.5758 146.017 42.3864 146.017 38.7045C146.017 35.1136 146.714 31.9621 148.108 29.25C149.502 26.5379 151.464 24.4242 153.994 22.9091C156.54 21.3939 159.525 20.6364 162.949 20.6364C165.252 20.6364 167.396 21.0076 169.381 21.75C171.381 22.4773 173.123 23.5758 174.608 25.0455C176.108 26.5152 177.275 28.3636 178.108 30.5909C178.941 32.803 179.358 35.3939 179.358 38.3636V41.0227H149.881V35.0227H170.244C170.244 33.6288 169.941 32.3939 169.335 31.3182C168.729 30.2424 167.888 29.4015 166.812 28.7955C165.752 28.1742 164.517 27.8636 163.108 27.8636C161.638 27.8636 160.335 28.2045 159.199 28.8864C158.078 29.553 157.199 30.4545 156.562 31.5909C155.926 32.7121 155.6 33.9621 155.585 35.3409V41.0455C155.585 42.7727 155.903 44.2652 156.54 45.5227C157.191 46.7803 158.108 47.75 159.29 48.4318C160.472 49.1136 161.873 49.4545 163.494 49.4545C164.57 49.4545 165.555 49.303 166.449 49C167.343 48.697 168.108 48.2424 168.744 47.6364C169.381 47.0303 169.866 46.2879 170.199 45.4091L179.153 46C178.699 48.1515 177.767 50.0303 176.358 51.6364C174.964 53.2273 173.161 54.4697 170.949 55.3636C168.752 56.2424 166.214 56.6818 163.335 56.6818ZM201.585 56.6818C197.994 56.6818 194.903 55.9545 192.312 54.5C189.737 53.0303 187.752 50.9545 186.358 48.2727C184.964 45.5758 184.267 42.3864 184.267 38.7045C184.267 35.1136 184.964 31.9621 186.358 29.25C187.752 26.5379 189.714 24.4242 192.244 22.9091C194.79 21.3939 197.775 20.6364 201.199 20.6364C203.502 20.6364 205.646 21.0076 207.631 21.75C209.631 22.4773 211.373 23.5758 212.858 25.0455C214.358 26.5152 215.525 28.3636 216.358 30.5909C217.191 32.803 217.608 35.3939 217.608 38.3636V41.0227H188.131V35.0227H208.494C208.494 33.6288 208.191 32.3939 207.585 31.3182C206.979 30.2424 206.138 29.4015 205.062 28.7955C204.002 28.1742 202.767 27.8636 201.358 27.8636C199.888 27.8636 198.585 28.2045 197.449 28.8864C196.328 29.553 195.449 30.4545 194.812 31.5909C194.176 32.7121 193.85 33.9621 193.835 35.3409V41.0455C193.835 42.7727 194.153 44.2652 194.79 45.5227C195.441 46.7803 196.358 47.75 197.54 48.4318C198.722 49.1136 200.123 49.4545 201.744 49.4545C202.82 49.4545 203.805 49.303 204.699 49C205.593 48.697 206.358 48.2424 206.994 47.6364C207.631 47.0303 208.116 46.2879 208.449 45.4091L217.403 46C216.949 48.1515 216.017 50.0303 214.608 51.6364C213.214 53.2273 211.411 54.4697 209.199 55.3636C207.002 56.2424 204.464 56.6818 201.585 56.6818ZM242.494 21.0909V28.3636H221.472V21.0909H242.494ZM226.244 12.7273H235.926V45.2727C235.926 46.1667 236.063 46.8636 236.335 47.3636C236.608 47.8485 236.987 48.1894 237.472 48.3864C237.972 48.5833 238.547 48.6818 239.199 48.6818C239.653 48.6818 240.108 48.6439 240.562 48.5682C241.017 48.4773 241.366 48.4091 241.608 48.3636L243.131 55.5682C242.646 55.7197 241.964 55.8939 241.085 56.0909C240.206 56.303 239.138 56.4318 237.881 56.4773C235.547 56.5682 233.502 56.2576 231.744 55.5455C230.002 54.8333 228.646 53.7273 227.676 52.2273C226.706 50.7273 226.229 48.8333 226.244 46.5455V12.7273ZM259.233 9.45454V56H249.551V9.45454H259.233ZM272.966 69.0909C271.739 69.0909 270.587 68.9924 269.511 68.7955C268.451 68.6136 267.572 68.3788 266.875 68.0909L269.057 60.8636C270.193 61.2121 271.216 61.4015 272.125 61.4318C273.049 61.4621 273.845 61.25 274.511 60.7955C275.193 60.3409 275.746 59.5682 276.17 58.4773L276.739 57L264.216 21.0909H274.398L281.625 46.7273H281.989L289.284 21.0909H299.534L285.966 59.7727C285.314 61.6515 284.428 63.2879 283.307 64.6818C282.201 66.0909 280.799 67.1742 279.102 67.9318C277.405 68.7045 275.36 69.0909 272.966 69.0909ZM323.057 21.0909V28.3636H302.034V21.0909H323.057ZM306.807 12.7273H316.489V45.2727C316.489 46.1667 316.625 46.8636 316.898 47.3636C317.17 47.8485 317.549 48.1894 318.034 48.3864C318.534 48.5833 319.11 48.6818 319.761 48.6818C320.216 48.6818 320.67 48.6439 321.125 48.5682C321.58 48.4773 321.928 48.4091 322.17 48.3636L323.693 55.5682C323.208 55.7197 322.527 55.8939 321.648 56.0909C320.769 56.303 319.701 56.4318 318.443 56.4773C316.11 56.5682 314.064 56.2576 312.307 55.5455C310.564 54.8333 309.208 53.7273 308.239 52.2273C307.269 50.7273 306.792 48.8333 306.807 46.5455V12.7273ZM329.364 56V21.0909H339.045V56H329.364ZM334.227 16.5909C332.788 16.5909 331.553 16.1136 330.523 15.1591C329.508 14.1894 329 13.0303 329 11.6818C329 10.3485 329.508 9.20454 330.523 8.25C331.553 7.2803 332.788 6.79545 334.227 6.79545C335.667 6.79545 336.894 7.2803 337.909 8.25C338.939 9.20454 339.455 10.3485 339.455 11.6818C339.455 13.0303 338.939 14.1894 337.909 15.1591C336.894 16.1136 335.667 16.5909 334.227 16.5909ZM362.574 56.6818C358.998 56.6818 355.922 55.9242 353.347 54.4091C350.786 52.8788 348.816 50.7576 347.438 48.0455C346.074 45.3333 345.392 42.2121 345.392 38.6818C345.392 35.1061 346.081 31.9697 347.46 29.2727C348.854 26.5606 350.831 24.447 353.392 22.9318C355.953 21.4015 358.998 20.6364 362.528 20.6364C365.574 20.6364 368.241 21.1894 370.528 22.2955C372.816 23.4015 374.627 24.9545 375.96 26.9545C377.294 28.9545 378.028 31.303 378.165 34H369.028C368.771 32.2576 368.089 30.8561 366.983 29.7955C365.892 28.7197 364.46 28.1818 362.688 28.1818C361.188 28.1818 359.877 28.5909 358.756 29.4091C357.65 30.2121 356.786 31.3864 356.165 32.9318C355.544 34.4773 355.233 36.3485 355.233 38.5455C355.233 40.7727 355.536 42.6667 356.142 44.2273C356.763 45.7879 357.634 46.9773 358.756 47.7955C359.877 48.6136 361.188 49.0227 362.688 49.0227C363.794 49.0227 364.786 48.7955 365.665 48.3409C366.559 47.8864 367.294 47.2273 367.869 46.3636C368.46 45.4848 368.847 44.4318 369.028 43.2045H378.165C378.013 45.8712 377.286 48.2197 375.983 50.25C374.695 52.2652 372.915 53.8409 370.642 54.9773C368.369 56.1136 365.68 56.6818 362.574 56.6818Z" fill="white"/>
<path d="M72 51C72 53.1217 71.1571 55.1566 69.6569 56.6569C68.1566 58.1571 66.1217 59 64 59H16L0 75V11C0 8.87827 0.842854 6.84344 2.34315 5.34315C3.84344 3.84285 5.87827 3 8 3H64C66.1217 3 68.1566 3.84285 69.6569 5.34315C71.1571 6.84344 72 8.87827 72 11V51Z" fill="#10ADD8"/>
<path d="M12 41L16.5 24.5L23 49.5L30 15.5L36 43L39 24.5L44 37.5L47 30L52 37.5L58 20" stroke="white" stroke-width="3" stroke-linecap="round" stroke-linejoin="round"/>
<circle cx="59.5" cy="15" r="6" fill="white"/>
</svg>