<svg fill="#10ADD8" width="64px" height="64px" viewBox="0 0 32.00 32.00" id="icon" xmlns="http://www.w3.org/2000/svg">
  <g id="SVGRepo_bgCarrier" stroke-width="0"></g>
  <g id="SVGRepo_tracerCarrier" stroke-linecap="round" stroke-linejoin="round"></g>
  <g id="SVGRepo_iconCarrier">
    <defs>
      <style>.cls-1{fill:none;}</style>
    </defs>
    <title>logout</title>
    <path d="M6,30H18a2.0023,2.0023,0,0,0,2-2V25H18v3H6V4H18V7h2V4a2.0023,2.0023,0,0,0-2-2H6A2.0023,2.0023,0,0,0,4,4V28A2.0023,2.0023,0,0,0,6,30Z"
          fill="#10ADD8" stroke="#10ADD8" stroke-width="1" stroke-linejoin="round" stroke-linecap="round"></path>
    <polygon points="20.586 20.586 24.172 17 10 17 10 15 24.172 15 20.586 11.414 22 10 28 16 22 22 20.586 20.586"
             fill="#10ADD8" stroke="#10ADD8" stroke-width="1" stroke-linejoin="round" stroke-linecap="round"></polygon>
    <rect id="_Transparent_Rectangle_" data-name="&lt;Transparent Rectangle&gt;" class="cls-1" width="32" height="32"></rect>
  </g>
</svg>