<svg width="22" height="19" viewBox="0 0 22 19" fill="none" xmlns="http://www.w3.org/2000/svg">
<path d="M18.95 13.925L17.4 12.375C18.1333 11.6917 18.7083 10.8834 19.125 9.95002C19.5417 9.01669 19.75 8.02502 19.75 6.97502C19.75 5.92502 19.5417 4.94169 19.125 4.02502C18.7083 3.10836 18.1333 2.30836 17.4 1.62502L18.95 0.0250244C19.8833 0.908358 20.625 1.95002 21.175 3.15002C21.725 4.35002 22 5.62502 22 6.97502C22 8.32502 21.725 9.60002 21.175 10.8C20.625 12 19.8833 13.0417 18.95 13.925ZM15.75 10.725L14.15 9.12502C14.45 8.84169 14.6917 8.52086 14.875 8.16252C15.0583 7.80419 15.15 7.40836 15.15 6.97502C15.15 6.54169 15.0583 6.14586 14.875 5.78752C14.6917 5.42919 14.45 5.10836 14.15 4.82502L15.75 3.22502C16.2833 3.70836 16.7 4.27086 17 4.91252C17.3 5.55419 17.45 6.24169 17.45 6.97502C17.45 7.70836 17.3 8.39586 17 9.03752C16.7 9.67919 16.2833 10.2417 15.75 10.725ZM8 10.975C6.9 10.975 5.95833 10.5834 5.175 9.80002C4.39167 9.01669 4 8.07502 4 6.97502C4 5.87502 4.39167 4.93336 5.175 4.15002C5.95833 3.36669 6.9 2.97502 8 2.97502C9.1 2.97502 10.0417 3.36669 10.825 4.15002C11.6083 4.93336 12 5.87502 12 6.97502C12 8.07502 11.6083 9.01669 10.825 9.80002C10.0417 10.5834 9.1 10.975 8 10.975ZM0 18.975V16.175C0 15.625 0.141667 15.1084 0.425 14.625C0.708333 14.1417 1.1 13.775 1.6 13.525C2.45 13.0917 3.40833 12.725 4.475 12.425C5.54167 12.125 6.71667 11.975 8 11.975C9.28333 11.975 10.4583 12.125 11.525 12.425C12.5917 12.725 13.55 13.0917 14.4 13.525C14.9 13.775 15.2917 14.1417 15.575 14.625C15.8583 15.1084 16 15.625 16 16.175V18.975H0ZM2 16.975H14V16.175C14 15.9917 13.9542 15.825 13.8625 15.675C13.7708 15.525 13.65 15.4084 13.5 15.325C12.9 15.025 12.1292 14.725 11.1875 14.425C10.2458 14.125 9.18333 13.975 8 13.975C6.81667 13.975 5.75417 14.125 4.8125 14.425C3.87083 14.725 3.1 15.025 2.5 15.325C2.35 15.4084 2.22917 15.525 2.1375 15.675C2.04583 15.825 2 15.9917 2 16.175V16.975ZM8 8.97502C8.55 8.97502 9.02083 8.77919 9.4125 8.38752C9.80417 7.99586 10 7.52502 10 6.97502C10 6.42502 9.80417 5.95419 9.4125 5.56252C9.02083 5.17086 8.55 4.97502 8 4.97502C7.45 4.97502 6.97917 5.17086 6.5875 5.56252C6.19583 5.95419 6 6.42502 6 6.97502C6 7.52502 6.19583 7.99586 6.5875 8.38752C6.97917 8.77919 7.45 8.97502 8 8.97502Z" fill="#10ADD8"/>
</svg>
