<svg width="20" height="21" viewBox="0 0 20 21" fill="none" xmlns="http://www.w3.org/2000/svg">
<path d="M19.32 8.05L17.43 7.42L18.32 5.64C18.4102 5.45369 18.4404 5.24397 18.4064 5.03978C18.3723 4.83558 18.2758 4.64699 18.13 4.5L16 2.37C15.8522 2.22209 15.6618 2.12421 15.4555 2.09013C15.2493 2.05605 15.0375 2.08748 14.85 2.18L13.07 3.07L12.44 1.18C12.3735 0.982996 12.2472 0.811629 12.0787 0.689751C11.9102 0.567874 11.7079 0.501548 11.5 0.500003H8.5C8.29036 0.499462 8.08584 0.564822 7.91537 0.686845C7.7449 0.808868 7.61709 0.981382 7.55 1.18L6.92 3.07L5.14 2.18C4.95369 2.08978 4.74396 2.05961 4.53977 2.09364C4.33558 2.12767 4.14698 2.22423 4 2.37L1.87 4.5C1.72209 4.64777 1.62421 4.83818 1.59013 5.04446C1.55604 5.25074 1.58748 5.46251 1.68 5.65L2.57 7.43L0.68 8.06C0.482992 8.12654 0.311625 8.25283 0.189748 8.42131C0.0678699 8.58979 0.00154386 8.79207 -4.81162e-07 9V12C-0.000541643 12.2096 0.0648185 12.4142 0.186841 12.5846C0.308865 12.7551 0.481379 12.8829 0.68 12.95L2.57 13.58L1.68 15.36C1.58978 15.5463 1.5596 15.756 1.59364 15.9602C1.62767 16.1644 1.72423 16.353 1.87 16.5L4 18.63C4.14776 18.7779 4.33817 18.8758 4.54446 18.9099C4.75074 18.944 4.96251 18.9125 5.15 18.82L6.93 17.93L7.56 19.82C7.62709 20.0186 7.7549 20.1911 7.92537 20.3132C8.09584 20.4352 8.30036 20.5005 8.51 20.5H11.51C11.7196 20.5005 11.9242 20.4352 12.0946 20.3132C12.2651 20.1911 12.3929 20.0186 12.46 19.82L13.09 17.93L14.87 18.82C15.0551 18.9079 15.2628 18.9369 15.4649 18.9029C15.667 18.8689 15.8538 18.7737 16 18.63L18.13 16.5C18.2779 16.3522 18.3758 16.1618 18.4099 15.9555C18.444 15.7493 18.4125 15.5375 18.32 15.35L17.43 13.57L19.32 12.94C19.517 12.8735 19.6884 12.7472 19.8103 12.5787C19.9321 12.4102 19.9985 12.2079 20 12V9C20.0005 8.79036 19.9352 8.58585 19.8132 8.41537C19.6911 8.2449 19.5186 8.11709 19.32 8.05ZM18 11.28L16.8 11.68C16.5241 11.7695 16.2709 11.918 16.0581 12.1151C15.8452 12.3122 15.6778 12.5533 15.5675 12.8216C15.4571 13.0899 15.4064 13.379 15.419 13.6688C15.4315 13.9586 15.5069 14.2422 15.64 14.5L16.21 15.64L15.11 16.74L14 16.14C13.7436 16.0122 13.4627 15.9411 13.1763 15.9313C12.89 15.9215 12.6049 15.9734 12.3403 16.0834C12.0758 16.1934 11.8379 16.3589 11.6429 16.5688C11.4479 16.7787 11.3003 17.0281 11.21 17.3L10.81 18.5H9.22L8.82 17.3C8.73049 17.0241 8.58202 16.7709 8.3849 16.5581C8.18777 16.3452 7.94671 16.1778 7.67842 16.0675C7.41013 15.9571 7.12105 15.9064 6.83122 15.919C6.5414 15.9315 6.25776 16.0069 6 16.14L4.86 16.71L3.76 15.61L4.36 14.5C4.49309 14.2422 4.56852 13.9586 4.58105 13.6688C4.59357 13.379 4.5429 13.0899 4.43254 12.8216C4.32218 12.5533 4.15478 12.3122 3.94194 12.1151C3.72911 11.918 3.47594 11.7695 3.2 11.68L2 11.28V9.72L3.2 9.32C3.47594 9.23049 3.72911 9.08203 3.94194 8.8849C4.15478 8.68778 4.32218 8.44671 4.43254 8.17842C4.5429 7.91014 4.59357 7.62105 4.58105 7.33123C4.56852 7.0414 4.49309 6.75777 4.36 6.5L3.79 5.39L4.89 4.29L6 4.86C6.25776 4.9931 6.5414 5.06852 6.83122 5.08105C7.12105 5.09358 7.41013 5.0429 7.67842 4.93254C7.94671 4.82218 8.18777 4.65478 8.3849 4.44195C8.58202 4.22912 8.73049 3.97595 8.82 3.7L9.22 2.5H10.78L11.18 3.7C11.2695 3.97595 11.418 4.22912 11.6151 4.44195C11.8122 4.65478 12.0533 4.82218 12.3216 4.93254C12.5899 5.0429 12.8789 5.09358 13.1688 5.08105C13.4586 5.06852 13.7422 4.9931 14 4.86L15.14 4.29L16.24 5.39L15.64 6.5C15.5122 6.75645 15.4411 7.03735 15.4313 7.32369C15.4215 7.61003 15.4734 7.89513 15.5834 8.15969C15.6934 8.42424 15.8589 8.66207 16.0688 8.85708C16.2787 9.0521 16.5281 9.19973 16.8 9.29L18 9.69V11.28ZM10 6.5C9.20887 6.5 8.43552 6.7346 7.77772 7.17413C7.11992 7.61365 6.60723 8.23836 6.30448 8.96927C6.00173 9.70017 5.92252 10.5044 6.07686 11.2804C6.2312 12.0563 6.61216 12.769 7.17157 13.3284C7.73098 13.8878 8.44371 14.2688 9.21964 14.4231C9.99556 14.5775 10.7998 14.4983 11.5307 14.1955C12.2616 13.8928 12.8864 13.3801 13.3259 12.7223C13.7654 12.0645 14 11.2911 14 10.5C14 9.43914 13.5786 8.42172 12.8284 7.67158C12.0783 6.92143 11.0609 6.5 10 6.5ZM10 12.5C9.60444 12.5 9.21776 12.3827 8.88886 12.1629C8.55996 11.9432 8.30361 11.6308 8.15224 11.2654C8.00086 10.8999 7.96126 10.4978 8.03843 10.1098C8.1156 9.72186 8.30608 9.36549 8.58579 9.08579C8.86549 8.80608 9.22186 8.6156 9.60982 8.53843C9.99778 8.46126 10.3999 8.50087 10.7654 8.65224C11.1308 8.80362 11.4432 9.05996 11.6629 9.38886C11.8827 9.71776 12 10.1044 12 10.5C12 11.0304 11.7893 11.5391 11.4142 11.9142C11.0391 12.2893 10.5304 12.5 10 12.5Z" fill="#10ADD8"/>
</svg>
